# xmcd
#
# Track frame offsets:
#	183
#	9838
#	17238
#	22228
#	31563
#	39113
#	46700
#	61448
#	73075
#	83123
#	94058
#	106525
#	113115
#	119460
#	126613
#	137230
#	144713
#	153513
#
# Disc length: 2185 seconds
#
# Revision: 1
# Processed by: cddbd v1.5.1PL2 Copyright (c) Steve Scherf et al.
# Submitted via: EasyCDDAExtractor 6.0.0.1
#
DISCID=eb088712
DTITLE=Merle Travis - Country Music CM018
DYEAR=1999
DGENRE=Country
TTITLE0=Nine Pound Hammer
TTITLE1=Cannonball Rag
TTITLE2=I'm Gonna Ride That Gospel Train
TTITLE3=Our Little Home In The Country
TTITLE4=Kansas City Blues
TTITLE5=I'm S-A-V-E-D
TTITLE6=Ida Sweet Asle Cider - Sheik Of Araby
TTITLE7=Porky's Boogie
TTITLE8=Divorce Me C.O.D. # 1 ('46)
TTITLE9=Ain't That A Cryin' Shame
TTITLE10=Churchy Time
TTITLE11=Freight Train Blues
TTITLE12=Go 'Long Mule
TTITLE13=Sugar Gourd Full Of Whiskey
TTITLE14=Dapper Dan
TTITLE15=No Vacancy # 3 ('46)
TTITLE16=How Long Has That Train Been Gone
TTITLE17=Boogie Woogie Cowboy
EXTD=
EXTT0=
EXTT1=
EXTT2=
EXTT3=
EXTT4=
EXTT5=
EXTT6=
EXTT7=
EXTT8=
EXTT9=
EXTT10=
EXTT11=
EXTT12=
EXTT13=
EXTT14=
EXTT15=
EXTT16=
EXTT17=
PLAYORDER=
